# xmcd
#
# Track frame offsets:
#	150
#	13975
#	29661
#	46776
#	59112
#	82305
#	102598
#	117221
#	132853
#	148385
#	160345
#
# Disc length: 2338 seconds
# Revision: 0
# Processed by: cddbd v1.5.2PL0 Copyright (c) Steve Scherf et al.
# Submitted via: dBpowerAMP V12.0
#
DISCID=aa09200b
DTITLE=Scott McAllister - Love is Easy
DYEAR=1900
DGENRE=Country
TTITLE0=LOVE IS EASY
TTITLE1=LOVE THE ONE YOUR WITH
TTITLE2=KISSES THROUGH THE AIR
TTITLE3=DOG ON A TOOLBOX 
TTITLE4=GO REST HIGH ON THAT MOUNTAIN
TTITLE5=IF HER HEART AINT IN MEMPHIS 
TTITLE6=RUB-A-DUBBIN
TTITLE7=THE CAR 
TTITLE8=ALL OF YOUR LIFE
TTITLE9=BE MY BABY TONIGHT
TTITLE10=YOU WON'T OUTLIVE ME
EXTD=
EXTT0=
EXTT1=
EXTT2=
EXTT3=
EXTT4=
EXTT5=
EXTT6=
EXTT7=
EXTT8=
EXTT9=
EXTT10=
PLAYORDER=
